<svg width="571" height="166" viewBox="0 0 571 166" fill="none" xmlns="http://www.w3.org/2000/svg">
<path d="M128.4 1.89999C106.7 7.49999 98.9 20.6 67.6 105.5C59 128.7 59.2 128.5 43.8 128.2C15.3 127.5 -1.39999 136.5 0.300007 151.7C2.40001 170.2 38.8 167.4 63.3 146.9C70.1 141.2 68.6 141.2 87.5 147.7C94.7 150.1 106.8 154.3 114.5 157C156.1 171.4 200 166.1 200 146.8C200 139.8 194.4 138.8 184.2 143.9C156.5 157.8 141.5 157.6 95 142.6C85.4 139.5 76.8 136.6 76 136.1C74.9 135.3 76.1 132 83.2 117.3C93.9 95.2 105.2 68.8 111.4 51C122.5 19.6 129.6 10 142.1 10C150.4 10 154 14.1 154 23.4C154 38.8 139.1 56.9 131.9 50.4C128.1 46.9 125.4 51.3 128.5 55.7C136.7 67.3 160.7 46.2 162.7 25.8C164.3 7.99998 148.3 -3.20001 128.4 1.89999ZM46.9 135.6C55.7 137.4 38.3 150.2 21 154.7C6.8 158.3 2.3 150.3 13.5 141.3C20 136.1 35.7 133.4 46.9 135.6Z" fill="#F7F6F8"/>
<path d="M406.4 13.9C398.1 17.7 385.7 37.8 372.4 69C356.4 106.7 329.9 131.4 316.7 121C311.8 117.1 310.6 105.4 314.2 96.8C315.8 93.2 315.8 93.2 320.2 94.2C336.5 97.9 353 86.7 353 71.7C353 60.2 342 55.2 327.1 59.9C307.7 65.9 295.9 82.4 295.8 103.7C295.8 114.3 286.3 128.8 275.8 134.1C258.8 142.8 260.2 122.3 280.2 71.5C291 43.9 287.8 47.4 304 46C340.4 43 346 42 346 38.9C346 38 339.7 37.9 320.4 38.5C306 38.9 294.9 38.9 295.2 38.4C295.4 37.9 297.5 33.7 299.8 29.1C304.7 19.1 305.2 15.3 301.5 14.4C295.1 12.8 288.7 17.9 281.5 30.4C275.9 40.1 273.2 40.9 258.5 37.5C250.4 35.6 247.8 36.2 248.2 39.7C248.7 43.8 252.6 45.9 262 47.1C266.6 47.6 270.6 48.2 270.7 48.4C270.9 48.5 268.8 53.8 266.1 60.1C261.6 70.8 256.3 85.8 254.2 94.1C252 102.5 237.7 120 233 120C228.3 120 232.3 103 242.1 81.5C248.5 67.4 248.6 65.9 243.8 63.4C240.2 61.5 237.2 62.1 233.1 65.5C230.1 68.1 230.1 68.1 224.4 66.4C195.9 58.1 164 107 185.6 125.9C192.1 131.6 197.3 131.1 208.4 123.5C214.9 119 214.9 119 217.7 122.6C224.7 131.6 232.6 131 243.5 120.8C250 114.8 250 114.8 250 121.2C250 153.3 275.7 152.6 297.1 120C298.7 117.6 298.7 117.6 301.8 121.2C313.7 134.7 334.2 132 351.5 114.5C359.6 106.4 359.6 106.4 358.2 114C352.9 144.6 378 153.5 397.1 127.8C402.9 120 402.9 120 404.9 122.9C412.1 133 423.6 129.2 435.6 112.8C439.4 107.7 439.4 107.7 440.6 112.2C445.1 127.4 464.2 134.1 480.5 126.1C495.7 118.6 519.8 86.4 514.3 80.9C512.7 79.3 511.8 80.1 506.2 89.2C483.5 126.1 453.8 136.1 456.2 106.1C457 95.9 459 93 464.2 94.2C484.4 98.8 504.7 78.7 494.8 64C484 48.2 449.8 64.1 442 88.5C439.2 97.4 421.5 120 417.4 120C412.3 120 417.1 102.3 428.4 79.1C433.7 68.1 433.5 66 426.9 66C417.5 66 402 91.4 402 107C402 112.5 389.1 130.3 382.8 133.6C375 137.7 371.5 134.1 371.5 122.1C371.6 106.6 374.9 99 388.3 84.8C425.1 45.5 436 20.4 419.3 13.4C414.9 11.5 411.3 11.7 406.4 13.9ZM419.8 26.4C419 36.4 407.6 54.5 391.6 71.5C383.4 80.2 384.1 78.3 399.1 50.3C404.5 40.1 409 31.6 409 31.4C409 29.8 414.5 22.7 416.3 22C420 20.5 420.3 20.8 419.8 26.4ZM345 68C349.6 76.7 328.7 92.9 322 85.8C319.3 82.8 319.2 82.9 325.7 76C334.2 66.8 342.5 63.3 345 68ZM489 68C493.6 76.7 472.7 92.9 466 85.8C463.3 82.8 463.2 82.9 469.7 76C478.2 66.8 486.5 63.3 489 68ZM226 74C226 74.5 223.8 80.5 221.1 87.2C218.4 94 215.8 101.3 215.4 103.5C214.6 107.9 208.1 115.1 201.6 118.5C191.5 123.9 190.7 108.7 200.3 93.7C208.7 80.6 226 67.3 226 74Z" fill="#F7F6F8"/>
<path d="M429.3 48C420.3 51.6 425.7 63.4 435.5 61.6C439.4 60.8 443.2 56.6 442.8 53.6C442.2 49.2 434.3 46 429.3 48ZM511.3 49C499.8 53.7 506.4 67.7 522.9 73.4C537.5 78.5 537.2 76.4 525.7 98.2999C517.3 114.1 520.6 126.5 533.7 128.6C542.3 129.9 550.4 123.2 562.7 104.6C573.1 88.8 573.3 79.2999 562.9 94.2999C549 114.4 539.2 122.6 537.4 115.6C536.6 112.5 538.8 107.6 544.9 99C554.8 84.9 551.9 77.3 533.6 69C526.8 65.9 526.8 65.9 527.5 62.1C529.1 52.5 520.3 45.4 511.3 49ZM519.8 56.2C521.1 57.5 521.4 62.2 520.4 63.3C519 64.7 516 61.8 516 59.1C516 55.1 517.5 53.9 519.8 56.2Z" fill="#F7F6F8"/>
</svg>
