<svg version="1.0" xmlns="http://www.w3.org/2000/svg" viewBox="0 0 1024 1024"><path d="M346.4 392.9c-21.7 5.6-29.5 18.7-60.8 103.6-8.6 23.2-8.4 23-23.8 22.7-28.5-.7-45.2 8.3-43.5 23.5 2.1 18.5 38.5 15.7 63-4.8 6.8-5.7 5.3-5.7 24.2.8 7.2 2.4 19.3 6.6 27 9.3 41.6 14.4 85.5 9.1 85.5-10.2 0-7-5.6-8-15.8-2.9-27.7 13.9-42.7 13.7-89.2-1.3-9.6-3.1-18.2-6-19-6.5-1.1-.8.1-4.1 7.2-18.8 10.7-22.1 22-48.5 28.2-66.3 11.1-31.4 18.2-41 30.7-41 8.3 0 11.9 4.1 11.9 13.4 0 15.4-14.9 33.5-22.1 27-3.8-3.5-6.5.9-3.4 5.3 8.2 11.6 32.2-9.5 34.2-29.9 1.6-17.8-14.4-29-34.3-23.9zm-81.5 133.7c8.8 1.8-8.6 14.6-25.9 19.1-14.2 3.6-18.7-4.4-7.5-13.4 6.5-5.2 22.2-7.9 33.4-5.7z"/><path d="M624.4 404.9c-8.3 3.8-20.7 23.9-34 55.1-16 37.7-42.5 62.4-55.7 52-4.9-3.9-6.1-15.6-2.5-24.2 1.6-3.6 1.6-3.6 6-2.6 16.3 3.7 32.8-7.5 32.8-22.5 0-11.5-11-16.5-25.9-11.8-19.4 6-31.2 22.5-31.3 43.8 0 10.6-9.5 25.1-20 30.4-17 8.7-15.6-11.8 4.4-62.6 10.8-27.6 7.6-24.1 23.8-25.5 36.4-3 42-4 42-7.1 0-.9-6.3-1-25.6-.4-14.4.4-25.5.4-25.2-.1.2-.5 2.3-4.7 4.6-9.3 4.9-10 5.4-13.8 1.7-14.7-6.4-1.6-12.8 3.5-20 16-5.6 9.7-8.3 10.5-23 7.1-8.1-1.9-10.7-1.3-10.3 2.2.5 4.1 4.4 6.2 13.8 7.4 4.6.5 8.6 1.1 8.7 1.3.2.1-1.9 5.4-4.6 11.7-4.5 10.7-9.8 25.7-11.9 34-2.2 8.4-16.5 25.9-21.2 25.9-4.7 0-.7-17 9.1-38.5 6.4-14.1 6.5-15.6 1.7-18.1-3.6-1.9-6.6-1.3-10.7 2.1-3 2.6-3 2.6-8.7.9-28.5-8.3-60.4 40.6-38.8 59.5 6.5 5.7 11.7 5.2 22.8-2.4 6.5-4.5 6.5-4.5 9.3-.9 7 9 14.9 8.4 25.8-1.8 6.5-6 6.5-6 6.5.4 0 32.1 25.7 31.4 47.1-1.2 1.6-2.4 1.6-2.4 4.7 1.2 11.9 13.5 32.4 10.8 49.7-6.7 8.1-8.1 8.1-8.1 6.7-.5-5.3 30.6 19.8 39.5 38.9 13.8 5.8-7.8 5.8-7.8 7.8-4.9 7.2 10.1 18.7 6.3 30.7-10.1 3.8-5.1 3.8-5.1 5-.6 4.5 15.2 23.6 21.9 39.9 13.9 15.2-7.5 39.3-39.7 33.8-45.2-1.6-1.6-2.5-.8-8.1 8.3-22.7 36.9-52.4 46.9-50 16.9.8-10.2 2.8-13.1 8-11.9 20.2 4.6 40.5-15.5 30.6-30.2-10.8-15.8-45 .1-52.8 24.5-2.8 8.9-20.5 31.5-24.6 31.5-5.1 0-.3-17.7 11-40.9 5.3-11 5.1-13.1-1.5-13.1-9.4 0-24.9 25.4-24.9 41 0 5.5-12.9 23.3-19.2 26.6-7.8 4.1-11.3.5-11.3-11.5.1-15.5 3.4-23.1 16.8-37.3 36.8-39.3 47.7-64.4 31-71.4-4.4-1.9-8-1.7-12.9.5zm13.4 12.5c-.8 10-12.2 28.1-28.2 45.1-8.2 8.7-7.5 6.8 7.5-21.2 5.4-10.2 9.9-18.7 9.9-18.9 0-1.6 5.5-8.7 7.3-9.4 3.7-1.5 4-1.2 3.5 4.4zM563 459c4.6 8.7-16.3 24.9-23 17.8-2.7-3-2.8-2.9 3.7-9.8 8.5-9.2 16.8-12.7 19.3-8zm144 0c4.6 8.7-16.3 24.9-23 17.8-2.7-3-2.8-2.9 3.7-9.8 8.5-9.2 16.8-12.7 19.3-8zm-263 6c0 .5-2.2 6.5-4.9 13.2-2.7 6.8-5.3 14.1-5.7 16.3-.8 4.4-7.3 11.6-13.8 15-10.1 5.4-10.9-9.8-1.3-24.8 8.4-13.1 25.7-26.4 25.7-19.7z"/><path d="M647.3 439c-9 3.6-3.6 15.4 6.2 13.6 3.9-.8 7.7-5 7.3-8-.6-4.4-8.5-7.6-13.5-5.6zm82 1c-11.5 4.7-4.9 18.7 11.6 24.4 14.6 5.1 14.3 3 2.8 24.9-8.4 15.8-5.1 28.2 8 30.3 8.6 1.3 16.7-5.4 29-24 10.4-15.8 10.6-25.3.2-10.3-13.9 20.1-23.7 28.3-25.5 21.3-.8-3.1 1.4-8 7.5-16.6 9.9-14.1 7-21.7-11.3-30-6.8-3.1-6.8-3.1-6.1-6.9 1.6-9.6-7.2-16.7-16.2-13.1zm8.5 7.2c1.3 1.3 1.6 6 .6 7.1-1.4 1.4-4.4-1.5-4.4-4.2 0-4 1.5-5.2 3.8-2.9z"/></svg>