<?xml version="1.0" standalone="no"?>
<!DOCTYPE svg PUBLIC "-//W3C//DTD SVG 20010904//EN"
 "http://www.w3.org/TR/2001/REC-SVG-20010904/DTD/svg10.dtd">
<svg version="1.0" xmlns="http://www.w3.org/2000/svg"
 width="538.000000pt" height="362.000000pt" viewBox="0 0 538.000000 362.000000"
 preserveAspectRatio="xMidYMid meet">
<metadata>
Created by potrace 1.10, written by Peter Selinger 2001-2011
</metadata>
<g transform="translate(0.000000,362.000000) scale(0.050000,-0.050000)"
fill="#000000" stroke="none">
<path d="M5297 7122 c-206 -227 -250 -415 -145 -614 94 -180 102 -175 113 65
5 120 20 240 32 267 17 38 19 -18 10 -235 -14 -324 -18 -318 132 -188 126 110
262 172 150 69 -33 -31 -100 -88 -148 -127 -133 -108 -46 -158 164 -95 101 30
273 274 275 391 0 3 -65 5 -145 5 l-145 0 0 105 c0 85 -18 141 -92 291 l-93
186 -108 -120z"/>
<path d="M4161 6285 c-126 -153 -19 -341 135 -234 54 38 56 70 6 131 -27 34
-35 66 -27 113 14 90 -34 86 -114 -10z"/>
<path d="M5000 6298 c-505 -65 -958 -737 -863 -1278 138 -785 908 -521 1229
420 108 316 105 720 -5 720 -10 0 -47 31 -82 68 -70 74 -131 90 -279 70z m-40
-229 c0 -6 -18 -45 -39 -88 -22 -43 -46 -114 -53 -159 -18 -115 35 -111 92 7
23 49 74 117 112 150 415 365 304 -581 -125 -1058 -429 -477 -778 83 -453 727
87 172 466 515 466 421z"/>
<path d="M3634 6080 c-162 -128 -455 -770 -516 -1130 -55 -324 177 -461 394
-234 97 100 298 470 280 515 -24 64 -67 19 -159 -171 -130 -266 -299 -418
-341 -308 -55 144 18 361 177 528 381 399 527 684 411 800 -53 53 -178 53
-246 0z m186 -131 c0 -90 -318 -578 -354 -542 -11 11 247 507 290 558 42 49
64 44 64 -16z"/>
<path d="M6990 5956 c-33 -10 -85 -54 -116 -98 -31 -43 -65 -78 -75 -78 -11 0
-19 -13 -19 -30 0 -74 184 -6 280 103 99 113 74 150 -70 103z"/>
<path d="M5568 5650 c-62 -95 95 -269 245 -270 71 0 70 -59 -4 -184 -226 -382
84 -604 335 -240 l64 93 18 -70 c73 -286 419 -294 665 -14 l81 91 34 -97 c85
-237 356 -268 591 -67 94 80 263 341 263 405 0 77 -53 46 -128 -77 -230 -372
-552 -499 -552 -219 0 136 32 173 146 164 127 -9 223 35 289 133 152 228 -89
395 -358 248 -98 -53 -168 -133 -318 -364 -221 -342 -522 -441 -518 -170 3
142 15 154 167 156 177 3 292 105 292 261 0 294 -490 191 -620 -130 -66 -165
-275 -417 -322 -388 -35 22 -17 80 62 197 120 177 92 266 -114 359 -69 31 -78
43 -70 92 18 127 -177 198 -248 91z m1208 -207 c9 -61 -114 -183 -185 -183
-112 0 -69 111 79 203 71 44 98 39 106 -20z m772 25 c30 -77 -114 -219 -208
-205 -95 14 -22 152 109 209 79 34 84 34 99 -4z"/>
<path d="M2405 4950 c-215 -59 -371 -174 -500 -368 -76 -113 -360 -808 -635
-1552 -41 -110 -96 -239 -123 -286 l-50 -86 -245 14 c-457 25 -743 -114 -768
-374 -36 -380 653 -368 1131 21 l126 101 234 -78 c129 -43 335 -114 458 -159
742 -266 1361 -260 1593 16 165 196 8 319 -246 191 -482 -243 -779 -234 -1640
48 -342 113 -324 91 -226 276 173 326 442 958 617 1446 204 571 442 777 664
574 186 -170 -146 -793 -343 -644 -48 36 -92 7 -92 -61 0 -230 395 -87 560
201 251 440 -43 850 -515 720z m-1429 -2439 c79 -79 -539 -378 -676 -327 -166
61 -19 271 234 336 77 19 421 12 442 -9z"/>
<path d="M5435 4825 c-26 -41 -58 -101 -71 -132 -21 -47 -34 -55 -74 -45 -112
28 -276 -102 -301 -238 -31 -164 54 -247 178 -174 58 34 72 36 81 12 29 -75
114 -80 176 -10 l59 66 45 -42 c74 -69 158 -74 259 -15 103 61 225 233 203
288 -13 33 -15 33 -37 -3 -141 -231 -305 -332 -344 -210 -24 77 8 118 93 118
130 0 230 140 154 216 -88 88 -278 -11 -368 -192 -187 -373 -211 -215 -26 174
54 114 98 219 98 235 0 57 -80 26 -125 -48z m372 -219 c20 -20 -69 -106 -110
-106 -48 0 -47 17 6 74 44 46 79 57 104 32z m-507 -41 c0 -49 -82 -218 -121
-250 -60 -48 -83 -21 -58 69 28 102 179 255 179 181z"/>
<path d="M8050 4692 c-81 -36 -148 -114 -250 -287 -97 -166 -92 -165 -360
-114 -194 37 -220 31 -220 -51 0 -78 83 -118 283 -134 136 -12 137 -13 109
-55 -31 -49 -153 -339 -192 -459 -47 -145 -303 -432 -386 -432 -12 0 -15 47
-9 120 31 340 -139 600 -392 600 l-117 0 -139 -134 c-154 -149 -251 -318 -273
-478 -22 -153 -95 -151 -168 6 -30 64 -118 188 -197 276 -235 263 -263 332
-166 409 69 54 86 52 184 -19 145 -105 264 -41 138 74 -348 319 -845 -65 -573
-443 48 -67 61 -101 47 -121 -10 -16 -79 -116 -153 -224 -217 -318 -416 -486
-416 -352 0 20 59 159 131 309 164 338 195 532 103 625 -143 143 -405 -21
-606 -380 -116 -207 -154 -189 -50 24 170 347 175 488 15 488 -149 0 -215 -62
-245 -230 -60 -337 -183 -591 -388 -806 -225 -233 -203 74 41 593 116 246 122
290 40 332 -83 43 -129 39 -199 -21 -57 -47 -67 -49 -134 -27 -163 54 -364 13
-511 -104 -550 -435 -369 -1323 190 -937 l121 83 66 -79 c131 -159 388 -94
536 134 52 80 70 78 70 -7 0 -127 183 -278 252 -207 14 14 44 102 67 195 62
253 236 553 428 738 118 114 119 57 3 -163 -216 -408 -232 -717 -41 -807 105
-51 193 -23 314 98 63 63 107 94 112 79 97 -291 669 -210 836 119 42 83 80
117 129 117 9 0 22 -36 30 -79 49 -288 407 -450 667 -301 87 49 183 180 183
248 0 20 28 46 67 62 37 16 110 60 161 99 113 87 114 87 90 6 -131 -448 112
-830 430 -676 205 99 653 723 591 823 -31 49 -81 -3 -225 -234 -161 -257 -271
-378 -393 -433 l-88 -40 -37 45 c-94 116 -26 423 250 1120 189 477 151 434
393 449 607 38 817 73 796 136 -10 30 -142 32 -610 10 l-325 -16 68 126 c154
285 126 398 -78 307z m-1266 -1007 c87 -95 143 -493 74 -536 -124 -77 -392
235 -310 361 18 27 32 80 32 118 0 119 116 151 204 57z m-3284 -53 c0 -16 -27
-88 -60 -162 -33 -73 -79 -198 -102 -277 -62 -207 -261 -405 -357 -353 -115
61 3 396 221 629 146 156 298 239 298 163z m2038 -335 c111 -138 108 -145 -73
-171 -190 -28 -185 -34 -97 110 40 66 72 129 72 142 0 37 13 26 98 -81z m996
-207 c51 -39 127 -81 169 -93 98 -29 103 -88 15 -175 -144 -145 -358 50 -308
280 16 72 13 72 124 -12z m-902 -201 c-54 -142 -429 -136 -384 5 18 58 57 72
232 85 157 12 185 -5 152 -90z"/>
<path d="M2999 2506 c-24 -38 -31 -39 -92 -14 -119 50 -167 39 -146 -34 37
-131 70 -158 189 -158 147 0 200 94 113 202 l-38 46 -26 -42z"/>
<path d="M3245 1802 c150 -153 223 -254 198 -270 -10 -7 -34 11 -52 40 -47 70
-312 348 -334 348 -9 0 -17 -57 -17 -127 0 -129 -32 -260 -59 -244 -8 5 -8 53
1 105 40 243 15 313 -78 225 -129 -120 -148 -247 -69 -454 66 -173 58 -171
175 -41 l94 105 40 -55 c47 -65 112 -101 293 -162 73 -25 149 -52 168 -61 85
-37 20 415 -78 544 -61 81 -180 143 -311 164 l-100 16 129 -133z"/>
</g>
</svg>
