<svg width="569" height="134" viewBox="0 0 569 134" fill="none" xmlns="http://www.w3.org/2000/svg">
<g clip-path="url(#clip0_83_13)">
<path d="M52.5 1.50003C28 6.10003 0.799988 26.7 0.799988 40.5C0.799988 54.9 18.7 55.7 25.1 41.6C27.9 35.4 27.4 34 23.8 38C16.4 46.2 10.5 48.2 7.39998 43.5C-0.200021 32 38.4 6.00003 63.2 6.00003C71.3 6.00003 71.7 5.30004 47.5 37.2C19.4 74.3 13 86.8 12.7 105.5C12.4 126.7 33.8 143.8 38 125.8C47.3 86.7 74.1 40.3 93.8 29.2C99.4 26.1 99.5 27.3 94.3 36C73.2 71.6 68.5 92.8 77.7 111.7C83.5 123.4 88.2 119.8 90.9 101.5C93.3 84.7 113.2 55.1 131.5 41C139.4 34.9 139.8 36.8 132.9 48.5C111.6 84.5 108.8 121.5 126.9 125.5C133.7 127 153 110.3 160.9 96.2C161.7 94.8 162.5 95.3 165.8 99C171.4 105.3 176.2 105.3 185 99.2C192.4 94.1 192.1 94.2 195.4 98.4C200.5 105.2 208.9 104.1 217.8 95.4C224.2 89.2 224 89.3 224 92.1C224 97.5 232.2 104.8 235.3 102.1C236.2 101.5 237.6 97.6 238.4 93.6C241.3 80.8 250.4 65.2 259.6 57C265.1 52.2 265.7 54.5 261.1 63.1C248.7 86.1 248.5 102.3 260.5 104.6C264.6 105.3 268.2 103.5 273.5 98.1C278.2 93.2 278.2 93.2 279.8 96.9C285 108.6 308.4 104.7 317.5 90.6C321.7 84 327 81.3 327 85.8C327 101.4 338.5 107.9 351 99.2C358.4 94.1 358.1 94.2 361.4 98.4C369.9 109.6 385.8 99.2 397.5 74.8C403.9 61.6 400.1 62.7 391 76.7C370.5 108.3 364.6 99 381.7 62.1C386.8 51 386.9 49.5 383 47.5C379.1 45.5 377.9 45.6 374.1 48.5C371.3 50.5 370.4 50.7 368.6 49.8C357.3 43.7 340 53.1 331.5 70.1C326.8 79.3 320.2 82 318.6 75.4C317.7 71.9 313.7 66.2 305.7 57.2C297.3 47.8 296 44.8 298.7 41.2C301.5 37.4 305 37.3 310.1 40.9C317.1 46 320.6 42.2 314 36.6C298.1 23.3 277 41 288.5 58C292 63.1 292 63.1 288.2 68.3C286.1 71.2 282.7 76 280.7 79C275.7 86.6 266.6 95.4 264.6 94.7C261.8 93.6 262.9 89.4 269.2 76.4C286.5 41.2 265.2 32.1 245 66.2C239.5 75.3 238.7 73.6 243.4 62.7C250.7 45.7 250.4 40.1 242.1 41.4C235.6 42.4 232 46.4 232 52.8C231.9 63.2 222.7 83.1 213.8 92C202.4 103.3 203.3 88.7 215.7 62.1C220.8 51 220.9 49.5 217 47.5C213.1 45.5 211.9 45.6 208.1 48.5C205.3 50.5 204.4 50.7 202.6 49.8C187.9 41.8 164.1 61 161.4 82.8C160.6 90.2 148.5 106.7 137.8 115.2C124.3 125.8 130.6 92.8 151.4 43C155.4 33.5 155.9 29.1 153.2 26.7C143.8 18.2 115.9 41.4 96.3 73.9C90.8 83.1 89.9 83.7 91.1 77.7C92.6 69.6 96 62.4 105 48.6C116.6 30.6 118.1 24.6 112 18.6C96 2.60004 53.2 55.7 34.9 114C30.6 127.9 29 128.5 29 116.5C29 98.2 38.1 78.1 60 48C79.6 21.1 81 18.7 81 12.3C81 1.40002 71.7 -2.09997 52.5 1.50003ZM201.7 56.2C201.4 56.9 199.4 62 197.2 67.6C195 73.1 192.8 79.3 192.5 81.3C191.2 88 179.1 97 175.5 94C169.3 88.8 181.6 64.7 194.5 56.8C198 54.7 202.5 54.3 201.7 56.2ZM367.7 56.2C367.4 56.9 365.4 62 363.2 67.6C361 73.1 358.8 79.3 358.5 81.3C357.2 88 345.1 97 341.5 94C335.3 88.8 347.6 64.7 360.5 56.8C364 54.7 368.5 54.3 367.7 56.2ZM301.7 75.4C303.8 79.1 303.2 79.5 294.8 80.7C284.8 82 285.2 82.4 289.1 75.9C290.8 72.9 292.7 69.4 293.2 68.1C294.1 65.5 297.8 68.7 301.7 75.4ZM240 73.5C240 73.8 239.8 74 239.5 74C239.2 74 239 73.8 239 73.5C239 73.2 239.2 73 239.5 73C239.8 73 240 73.2 240 73.5ZM303.8 89.2C303 97.7 285 100.4 285 92C285 87.8 288.6 86.3 298.8 86.1C304.1 86 304.1 86 303.8 89.2Z" fill="#F7F6F8"/>
<path d="M502 17.8C500 19.9 495.3 27.8 491.5 35.4C485.2 47.9 484.4 49.1 482.3 48.5C465.8 44.4 456.4 49.6 442.4 70.6C433.5 83.9 427.9 90.5 423.9 92.6C417 96.1 417.5 88.9 424.9 77.6C433.2 64.8 431.4 58.8 417.1 51.9C410.2 48.6 410.2 48.6 410.4 43.8C410.6 34.8 399.3 29.3 393.9 35.9C388.6 42.4 393.6 50.2 405.8 54.6C417.6 58.8 417.9 59.2 413.4 67.6C405.6 82.1 405.1 83.4 405 88.5C404.9 106.4 421.3 107.8 434.1 91C439.5 84 439.5 84 440.1 89C442.1 104.1 456.6 107.4 467.4 95.2001C470.1 92.1001 471.4 92.5 472.8 96.5C477.8 110.3 491.1 108.7 501.3 93.1C504.8 87.8 504.8 87.8 506.5 91.1C514.7 107.3 534.6 108 550.8 92.6C559.3 84.6 569 69.1 569 63.5C569 59.2 567.3 60.7 560.5 71C541.6 99.7 519 108.1 519 86.4C519 74.5 520 73.3 529.9 73.4C545.2 73.5 554.9 65.1 553.8 52.8C551.7 31.5 516.2 42.8001 506.9 67.7001C502.2 80.3001 490.3 98 486.5 98C479.6 98 484.9 80.0001 504.4 36.7001C512.2 19.4001 512.9 17.3001 510.8 15.2001C508.7 13.1001 505.8 13.9 502 17.8ZM404.8 43.8C405 46.1 404.7 47 403.6 47C401.6 47 399.8 43.6 400.6 41.5C401.7 38.7 404.5 40.2 404.8 43.8ZM546.9 50.8C549.6 55.8 539 68 531.9 68C526 68 524.8 63.9 529.2 58.6C535.5 51 544.8 46.8 546.9 50.8ZM481.6 54.3C481.8 55 480.7 58.6 479.1 62.3C477.4 66 475.2 72.1 474 75.9C471.9 83.2 467.1 88.8 460 92.5C451.3 97 453.2 80 463 66.1C469.9 56.3 479.9 49.9 481.6 54.3Z" fill="#F7F6F8"/>
</g>
<defs>
<clipPath id="clip0_83_13">
<rect width="569" height="134" fill="white"/>
</clipPath>
</defs>
</svg>
