<svg version="1.0" xmlns="http://www.w3.org/2000/svg" viewBox="0 0 1024 1024"><path d="M279.5 401.5c-24.5 4.6-51.7 25.2-51.7 39 0 14.4 17.9 15.2 24.3 1.1 2.8-6.2 2.3-7.6-1.3-3.6-7.4 8.2-13.3 10.2-16.4 5.5-7.6-11.5 31-37.5 55.8-37.5 8.1 0 8.5-.7-15.7 31.2-28.1 37.1-34.5 49.6-34.8 68.3-.3 21.2 21.1 38.3 25.3 20.3 9.3-39.1 36.1-85.5 55.8-96.6 5.6-3.1 5.7-1.9.5 6.8-21.1 35.6-25.8 56.8-16.6 75.7 5.8 11.7 10.5 8.1 13.2-10.2 2.4-16.8 22.3-46.4 40.6-60.5 7.9-6.1 8.3-4.2 1.4 7.5-21.3 36-24.1 73-6 77 6.8 1.5 26.1-15.2 34-29.3.8-1.4 1.6-.9 4.9 2.8 5.6 6.3 10.4 6.3 19.2.2 7.4-5.1 7.1-5 10.4-.8 5.1 6.8 13.5 5.7 22.4-3 6.4-6.2 6.2-6.1 6.2-3.3 0 5.4 8.2 12.7 11.3 10 .9-.6 2.3-4.5 3.1-8.5 2.9-12.8 12-28.4 21.2-36.6 5.5-4.8 6.1-2.5 1.5 6.1-12.4 23-12.6 39.2-.6 41.5 4.1.7 7.7-1.1 13-6.5 4.7-4.9 4.7-4.9 6.3-1.2 5.2 11.7 28.6 7.8 37.7-6.3 4.2-6.6 9.5-9.3 9.5-4.8 0 15.6 11.5 22.1 24 13.4 7.4-5.1 7.1-5 10.4-.8 8.5 11.2 24.4.8 36.1-23.6 6.4-13.2 2.6-12.1-6.5 1.9-20.5 31.6-26.4 22.3-9.3-14.6 5.1-11.1 5.2-12.6 1.3-14.6-3.9-2-5.1-1.9-8.9 1-2.8 2-3.7 2.2-5.5 1.3-11.3-6.1-28.6 3.3-37.1 20.3-4.7 9.2-11.3 11.9-12.9 5.3-.9-3.5-4.9-9.2-12.9-18.2-8.4-9.4-9.7-12.4-7-16 2.8-3.8 6.3-3.9 11.4-.3 7 5.1 10.5 1.3 3.9-4.3-15.9-13.3-37 4.4-25.5 21.4 3.5 5.1 3.5 5.1-.3 10.3-2.1 2.9-5.5 7.7-7.5 10.7-5 7.6-14.1 16.4-16.1 15.7-2.8-1.1-1.7-5.3 4.6-18.3 17.3-35.2-4-44.3-24.2-10.2-5.5 9.1-6.3 7.4-1.6-3.5 7.3-17 7-22.6-1.3-21.3-6.5 1-10.1 5-10.1 11.4-.1 10.4-9.3 30.3-18.2 39.2-11.4 11.3-10.5-3.3 1.9-29.9 5.1-11.1 5.2-12.6 1.3-14.6-3.9-2-5.1-1.9-8.9 1-2.8 2-3.7 2.2-5.5 1.3-14.7-8-38.5 11.2-41.2 33-.8 7.4-12.9 23.9-23.6 32.4-13.5 10.6-7.2-22.4 13.6-72.2 4-9.5 4.5-13.9 1.8-16.3-9.4-8.5-37.3 14.7-56.9 47.2-5.5 9.2-6.4 9.8-5.2 3.8 1.5-8.1 4.9-15.3 13.9-29.1 11.6-18 13.1-24 7-30-16-16-58.8 37.1-77.1 95.4-4.3 13.9-5.9 14.5-5.9 2.5 0-18.3 9.1-38.4 31-68.5 19.6-26.9 21-29.3 21-35.7 0-10.9-9.3-14.4-28.5-10.8zm149.2 54.7c-.3.7-2.3 5.8-4.5 11.4-2.2 5.5-4.4 11.7-4.7 13.7-1.3 6.7-13.4 15.7-17 12.7-6.2-5.2 6.1-29.3 19-37.2 3.5-2.1 8-2.5 7.2-.6zm166 0c-.3.7-2.3 5.8-4.5 11.4-2.2 5.5-4.4 11.7-4.7 13.7-1.3 6.7-13.4 15.7-17 12.7-6.2-5.2 6.1-29.3 19-37.2 3.5-2.1 8-2.5 7.2-.6zm-66 19.2c2.1 3.7 1.5 4.1-6.9 5.3-10 1.3-9.6 1.7-5.7-4.8 1.7-3 3.6-6.5 4.1-7.8.9-2.6 4.6.6 8.5 7.3zm-61.7-1.9c0 .3-.2.5-.5.5s-.5-.2-.5-.5.2-.5.5-.5.5.2.5.5zm63.8 15.7c-.8 8.5-18.8 11.2-18.8 2.8 0-4.2 3.6-5.7 13.8-5.9 5.3-.1 5.3-.1 5 3.1z"/><path d="M729 417.8c-2 2.1-6.7 10-10.5 17.6-6.3 12.5-7.1 13.7-9.2 13.1-16.5-4.1-25.9 1.1-39.9 22.1-8.9 13.3-14.5 19.9-18.5 22-6.9 3.5-6.4-3.7 1-15 8.3-12.8 6.5-18.8-7.8-25.7-6.9-3.3-6.9-3.3-6.7-8.1.2-9-11.1-14.5-16.5-7.9-5.3 6.5-.3 14.3 11.9 18.7 11.8 4.2 12.1 4.6 7.6 13-7.8 14.5-8.3 15.8-8.4 20.9-.1 17.9 16.3 19.3 29.1 2.5 5.4-7 5.4-7 6-2 2 15.1 16.5 18.4 27.3 6.2 2.7-3.1 4-2.7 5.4 1.3 5 13.8 18.3 12.2 28.5-3.4 3.5-5.3 3.5-5.3 5.2-2 8.2 16.2 28.1 16.9 44.3 1.5 8.5-8 18.2-23.5 18.2-29.1 0-4.3-1.7-2.8-8.5 7.5-18.9 28.7-41.5 37.1-41.5 15.4 0-11.9 1-13.1 10.9-13 15.3.1 25-8.3 23.9-20.6-2.1-21.3-37.6-10-46.9 14.9-4.7 12.6-16.6 30.3-20.4 30.3-6.9 0-1.6-18 17.9-61.3 7.8-17.3 8.5-19.4 6.4-21.5-2.1-2.1-5-1.3-8.8 2.6zm-97.2 26c.2 2.3-.1 3.2-1.2 3.2-2 0-3.8-3.4-3-5.5 1.1-2.8 3.9-1.3 4.2 2.3zm142.1 7c2.7 5-7.9 17.2-15 17.2-5.9 0-7.1-4.1-2.7-9.4 6.3-7.6 15.6-11.8 17.7-7.8zm-65.3 3.5c.2.7-.9 4.3-2.5 8-1.7 3.7-3.9 9.8-5.1 13.6-2.1 7.3-6.9 12.9-14 16.6-8.7 4.5-6.8-12.5 3-26.4 6.9-9.8 16.9-16.2 18.6-11.8z"/></svg>