<svg width="612" height="182" viewBox="0 0 612 182" fill="none" xmlns="http://www.w3.org/2000/svg">
<path d="M46 1.69998C18 6.29998 -6.69999 30.5 2.00001 44.8C9.30001 56.7 36 48.8 36 34.7C36 31.7 36 31.7 30.7 36.7C11.7 54.7 -1.9 44.8 16.4 26.4C26.2 16.7 42.4 10.3 55.2 11.2C68 12.1 68 15.4 55.5 47.5C50.3 60.9 44.9 76 43.5 81C42.2 86.1 40.9 90.4 40.8 90.5C40.6 90.6 38.5 91.8 36 93C22.7 99.6 20.7 106.2 33.1 102.5C40.4 100.3 40 99.6 38.8 111.5C36.5 135.7 41 148.4 53.3 152.3C66.3 156.4 69.9 153.1 63.3 142.7C57.7 133.8 56.9 123.2 60.6 105.9C62.8 96.1 63.6 95.9 71.8 104.2C79.4 111.9 82.9 116.7 93.2 133.8C102.8 149.8 113.9 164.9 120.4 170.8C132.6 182 152.7 185.4 160.6 177.5C164.5 173.6 163.7 173 155.1 173.7C142.4 174.6 136.7 170.9 127.4 155.4C106.7 121 99.5 110.9 91.4 104.6C85 99.7 84.6 100.2 97.3 98C134.6 91.7 153.9 53.4 131.9 29.5C119.8 16.4 105.9 15.9 89.2 28C84.6 31.3 80.7 34 80.4 34C80.2 34 80 30.5 80 26.2C80 7.29998 67.3 -1.80002 46 1.69998V1.69998ZM117.9 26.8C129.6 33.1 126.6 56.5 112.5 70.3C101.7 80.9 87.8 86.9 74.4 87C63.3 87 63.4 88.7 72.6 58.2C78.7 38.1 105 19.9 117.9 26.8Z" fill="#F7F6F8"/>
<path d="M405.3 60.9C400.4 63.2 399.5 64.7 398.5 72.4C395.9 94.2 376.8 127.1 367.6 125.8C362.8 125.1 366.9 107.8 377 85.6C384 70.3 384.2 68.7 379.8 66C375.2 63.2 372.6 63.5 368.5 67.1C365 70.2 365 70.2 359.2 68.6C340.4 63.4 329.2 71 308.8 103C285.5 139.4 277.5 138.1 292.6 100.4C306 66.8 294.3 55.1 270.4 78.1C263.4 85 263.4 85 262.2 78.9C259.3 63.4 251 63 236.6 77.5C227.6 86.6 227.1 86.6 230.6 77.5C234.5 66.9 231.7 63.4 221.1 66C213.3 67.8 210.8 71.3 210.1 80.9C209.4 90.5 204.1 98.5001 195.5 103.2C190.5 105.9 190.5 105.9 190 94.1C188.3 56.1 158.2 51.2 140.5 86C135.5 95.8 134.3 110.3 137.5 120.1C145 142.5 177.9 144.1 185.3 122.4C186.4 119.2 187.8 117.9 192.5 115.3C195.6 113.5 200 110.6 202.1 108.9C206.7 105.3 206.8 105.6 203.5 114C200.5 121.7 200.4 124.5 203 128.7C209.5 139.5 216.8 134.6 225.4 113.9C232.6 96.6 237.5 86.9001 241.6 82.2001C246.4 76.6001 247.9 77.8001 245.2 85.2001C238.6 103 235.9 124.7 239.6 129.7C244.3 136 249.8 132.3 254.5 120C260.7 103.4 271.9 85.1 278.9 80.1C283.2 77 283.3 77.4001 280.1 83.2001C271.9 98.0001 267.4 122.2 271.4 130.3C278.7 145.4 289.8 142.1 304.5 120.7C308 115.5 310 113.3 310 114.6C310 133.3 324.6 140.5 340.7 129.7C348.2 124.7 348.2 124.7 352.7 129.4C361.5 138.4 374.4 135 384.2 121.3C387.5 116.8 387.5 116.8 388 121.2C388.9 128.8 395.2 135.5 400.8 134.8C403.3 134.5 403.7 133.9 406.2 123.9C410.4 107.1 418.8 92.5 431.2 80.3C439.7 71.9 440.3 74.4 433 88.6C419.7 114.7 418.8 130.5 430.3 136.3C437.9 140.2 445.4 136 456 121.8C462.4 113.2 462.4 113.2 465.3 119.1C475.2 139.8 499.7 139.1 522.1 117.3C531.7 108 531.7 108 532.4 112.6C534.9 131.4 557.1 141.7 574.6 132.2C592.2 122.7 615.1 92.5 611.6 83.5C610.6 80.9 608.8 82.9 600.5 95.6C579.6 127.7 554.9 138.6 550 118C547.8 108.8 551.6 96.7 556.3 97.8C575.1 102 593 90.7001 593 74.7001C593 47.1001 545.5 58.9 535.5 89C528.4 110.3 495.3 131.9 484.2 122.5C476.8 116.2 483.8 91.3 496.7 78.5C504 71.2 515.1 67 513.6 72.1C510.2 83.5 513.8 90.1 519.9 83.6C525 78.2 523.2 66.7 516.9 63.5C499.5 54.5 470.2 71.9 464 94.9C460.7 107.1 441.6 128.5 437.6 124.4C435.3 122.2 436.1 119.6 444.6 102C454 82.5 455.5 73.8 450.3 68C442.2 58.9 428.4 67.1 414.8 89.2001C407.1 101.8 404.3 102 410.7 89.5C422.6 66.3 420.3 54.1 405.3 60.9V60.9ZM584 69.5C588.7 75.2 574.9 91 565.2 91C558.9 91 557.3 86.8 561.4 81.1C568.2 71.9 580.6 65.5 584 69.5V69.5ZM176.6 73.5C181.6 78.5 183.8 88 182.5 99.6C181.8 106.2 181.8 106.2 177.5 105.8C166.2 104.5 156.4 89.8 162.4 83.1C163.3 82.1 164 79.6001 164 77.2001C164 70.7001 171.5 68.4 176.6 73.5V73.5ZM360.3 77.5C360.2 78 358.1 83.4 355.6 89.5C353.1 95.5 350.4 103.2 349.6 106.5C346.7 117.4 332.8 128.8 328 124C320.6 116.6 334.5 89.4 351 78.8C355.3 76 360.7 75.3 360.3 77.5V77.5ZM172.4 114.5C177.3 116.4 177.8 117.5 175.5 122C168.6 135.3 153.8 128.5 153.8 111.9C153.8 103.8 154.2 103.6 161.4 108.5C164.9 110.8 169.9 113.5 172.4 114.5V114.5Z" fill="#F7F6F8"/>
</svg>
