<svg version="1.0" xmlns="http://www.w3.org/2000/svg" viewBox="0 0 1024 1024"><path d="M252 368.7c-28 4.6-52.7 28.8-44 43.1 7.3 11.9 34 4 34-10.1 0-3 0-3-5.3 2-19 18-32.6 8.1-14.3-10.3 9.8-9.7 26-16.1 38.8-15.2 12.8.9 12.8 4.2.3 36.3-5.2 13.4-10.6 28.5-12 33.5-1.3 5.1-2.6 9.4-2.7 9.5-.2.1-2.3 1.3-4.8 2.5-13.3 6.6-15.3 13.2-2.9 9.5 7.3-2.2 6.9-2.9 5.7 9-2.3 24.2 2.2 36.9 14.5 40.8 13 4.1 16.6.8 10-9.6-5.6-8.9-6.4-19.5-2.7-36.8 2.2-9.8 3-10 11.2-1.7 7.6 7.7 11.1 12.5 21.4 29.6 9.6 16 20.7 31.1 27.2 37 12.2 11.2 32.3 14.6 40.2 6.7 3.9-3.9 3.1-4.5-5.5-3.8-12.7.9-18.4-2.8-27.7-18.3-20.7-34.4-27.9-44.5-36-50.8-6.4-4.9-6.8-4.4 5.9-6.6 37.3-6.3 56.6-44.6 34.6-68.5-12.1-13.1-26-13.6-42.7-1.5-4.6 3.3-8.5 6-8.8 6-.2 0-.4-3.5-.4-7.8 0-18.9-12.7-28-34-24.5zm71.9 25.1c11.7 6.3 8.7 29.7-5.4 43.5-10.8 10.6-24.7 16.6-38.1 16.7-11.1 0-11 1.7-1.8-28.8 6.1-20.1 32.4-38.3 45.3-31.4z"/><path d="M611.3 427.9c-4.9 2.3-5.8 3.8-6.8 11.5-2.6 21.8-21.7 54.7-30.9 53.4-4.8-.7-.7-18 9.4-40.2 7-15.3 7.2-16.9 2.8-19.6-4.6-2.8-7.2-2.5-11.3 1.1-3.5 3.1-3.5 3.1-9.3 1.5-18.8-5.2-30 2.4-50.4 34.4-23.3 36.4-31.3 35.1-16.2-2.6 13.4-33.6 1.7-45.3-22.2-22.3-7 6.9-7 6.9-8.2.8-2.9-15.5-11.2-15.9-25.6-1.4-9 9.1-9.5 9.1-6 0 3.9-10.6 1.1-14.1-9.5-11.5-7.8 1.8-10.3 5.3-11 14.9-.7 9.6-6 17.6-14.6 22.3-5 2.7-5 2.7-5.5-9.1-1.7-38-31.8-42.9-49.5-8.1-5 9.8-6.2 24.3-3 34.1 7.5 22.4 40.4 24 47.8 2.3 1.1-3.2 2.5-4.5 7.2-7.1 3.1-1.8 7.5-4.7 9.6-6.4 4.6-3.6 4.7-3.3 1.4 5.1-3 7.7-3.1 10.5-.5 14.7 6.5 10.8 13.8 5.9 22.4-14.8 7.2-17.3 12.1-27 16.2-31.7 4.8-5.6 6.3-4.4 3.6 3-6.6 17.8-9.3 39.5-5.6 44.5 4.7 6.3 10.2 2.6 14.9-9.7 6.2-16.6 17.4-34.9 24.4-39.9 4.3-3.1 4.4-2.7 1.2 3.1-8.2 14.8-12.7 39-8.7 47.1 7.3 15.1 18.4 11.8 33.1-9.6 3.5-5.2 5.5-7.4 5.5-6.1 0 18.7 14.6 25.9 30.7 15.1 7.5-5 7.5-5 12-.3 8.8 9 21.7 5.6 31.5-8.1 3.3-4.5 3.3-4.5 3.8-.1.9 7.6 7.2 14.3 12.8 13.6 2.5-.3 2.9-.9 5.4-10.9 4.2-16.8 12.6-31.4 25-43.6 8.5-8.4 9.1-5.9 1.8 8.3-13.3 26.1-14.2 41.9-2.7 47.7 7.6 3.9 15.1-.3 25.7-14.5 6.4-8.6 6.4-8.6 9.3-2.7 9.9 20.7 34.4 20 56.8-1.8 9.6-9.3 9.6-9.3 10.3-4.7 2.5 18.8 24.7 29.1 42.2 19.6 17.6-9.5 40.5-39.7 37-48.7-1-2.6-2.8-.6-11.1 12.1-20.9 32.1-45.6 43-50.5 22.4-2.2-9.2 1.6-21.3 6.3-20.2 18.8 4.2 36.7-7.1 36.7-23.1 0-27.6-47.5-15.8-57.5 14.3-7.1 21.3-40.2 42.9-51.3 33.5-7.4-6.3-.4-31.2 12.5-44 7.3-7.3 18.4-11.5 16.9-6.4-3.4 11.4.2 18 6.3 11.5 5.1-5.4 3.3-16.9-3-20.1-17.4-9-46.7 8.4-52.9 31.4-3.3 12.2-22.4 33.6-26.4 29.5-2.3-2.2-1.5-4.8 7-22.4 9.4-19.5 10.9-28.2 5.7-34-8.1-9.1-21.9-.9-35.5 21.2-7.7 12.6-10.5 12.8-4.1.3 11.9-23.2 9.6-35.4-5.4-28.6zm178.7 8.6c4.7 5.7-9.1 21.5-18.8 21.5-6.3 0-7.9-4.2-3.8-9.9 6.8-9.2 19.2-15.6 22.6-11.6zm-407.4 4c5 5 7.2 14.5 5.9 26.1-.7 6.6-.7 6.6-5 6.2-11.3-1.3-21.1-16-15.1-22.7.9-1 1.6-3.5 1.6-5.9 0-6.5 7.5-8.8 12.6-3.7zm183.7 4c-.1.5-2.2 5.9-4.7 12-2.5 6-5.2 13.7-6 17-2.9 10.9-16.8 22.3-21.6 17.5-7.4-7.4 6.5-34.6 23-45.2 4.3-2.8 9.7-3.5 9.3-1.3zm-187.9 37c4.9 1.9 5.4 3 3.1 7.5-6.9 13.3-21.7 6.5-21.7-10.1 0-8.1.4-8.3 7.6-3.4 3.5 2.3 8.5 5 11 6z"/></svg>