<?xml version="1.0" standalone="no"?>
<!DOCTYPE svg PUBLIC "-//W3C//DTD SVG 20010904//EN"
 "http://www.w3.org/TR/2001/REC-SVG-20010904/DTD/svg10.dtd">
<svg version="1.0" xmlns="http://www.w3.org/2000/svg"
 width="700.000000pt" height="700.000000pt" viewBox="0 0 700.000000 700.000000"
 preserveAspectRatio="xMidYMid meet">
<metadata>
Created by potrace 1.14, written by Peter Selinger 2001-2017
</metadata>
<g transform="translate(0.000000,700.000000) scale(0.100000,-0.100000)"
fill="#000000" stroke="none">
<path d="M1342 5313 c-1 -51 -13 -286 -27 -538 -2 -33 -7 -127 -11 -210 -16
-290 -10 -869 11 -1030 4 -29 9 -71 20 -170 4 -27 10 -68 15 -91 5 -22 12 -58
14 -80 3 -21 19 -93 36 -159 17 -66 32 -129 35 -139 36 -153 169 -457 269
-616 101 -162 155 -229 311 -386 192 -194 362 -315 635 -451 118 -59 152 -75
262 -119 35 -14 81 -34 103 -44 124 -55 421 -161 503 -180 221 -50 220 39 0
370 -39 58 -79 114 -89 126 -11 11 -19 25 -19 31 0 6 -3 13 -7 15 -5 2 -62 75
-127 163 -66 88 -124 165 -129 170 -4 6 -60 80 -122 165 -63 85 -118 160 -123
165 -4 6 -28 39 -52 75 -25 36 -48 67 -52 68 -5 2 -8 10 -8 17 0 7 -3 15 -8
17 -11 4 -82 106 -82 117 0 5 -3 11 -7 13 -11 4 -73 97 -73 107 0 5 -4 11 -8
13 -9 3 -168 256 -192 303 -8 17 -18 32 -21 35 -4 3 -25 42 -47 87 -78 161
-74 217 12 148 51 -41 230 -249 411 -480 48 -61 125 -159 138 -175 7 -8 118
-152 247 -320 271 -353 406 -529 423 -550 7 -8 37 -47 67 -85 391 -499 537
-600 622 -430 32 64 85 264 103 390 3 22 10 56 15 75 5 19 11 53 15 75 3 22
14 87 25 145 11 58 21 117 24 133 3 15 7 35 10 45 3 9 7 28 10 42 2 14 14 66
26 115 12 50 23 97 25 105 2 8 22 79 44 156 93 321 213 584 266 584 16 0 34
-74 30 -122 -10 -118 -16 -176 -20 -198 -3 -14 -7 -41 -9 -60 -6 -44 -13 -93
-32 -200 -15 -88 -15 -93 -39 -225 -8 -44 -16 -91 -19 -105 -2 -14 -25 -127
-50 -251 -25 -124 -48 -241 -51 -260 -3 -19 -8 -41 -10 -49 -16 -58 -29 -181
-28 -281 1 -219 95 -330 248 -297 203 44 532 349 817 759 82 118 141 257 164
389 2 14 9 48 14 75 56 281 58 805 5 1155 -2 14 -7 45 -11 70 -3 25 -8 55 -9
67 -3 18 -15 88 -20 113 -1 7 -24 104 -42 180 -51 221 -190 543 -256 598 -13
11 -24 8 -72 -23 -31 -20 -66 -45 -78 -55 -11 -11 -27 -20 -34 -20 -7 0 -13
-5 -13 -10 0 -6 -8 -14 -17 -17 -9 -4 -24 -14 -33 -22 -9 -9 -31 -27 -50 -41
-32 -24 -94 -71 -115 -88 -5 -4 -23 -17 -40 -30 -16 -12 -43 -33 -60 -47 -16
-13 -82 -65 -145 -115 -63 -50 -122 -96 -130 -103 -8 -6 -47 -37 -85 -67 -39
-30 -72 -57 -75 -60 -3 -3 -25 -21 -50 -40 -25 -19 -46 -38 -48 -42 -2 -5 -8
-8 -13 -8 -5 0 -21 -11 -36 -25 -38 -33 -192 -155 -197 -155 -3 0 -35 37 -73
83 -37 45 -82 98 -100 117 -18 19 -33 38 -33 42 0 4 -10 17 -22 30 -13 13 -43
48 -68 78 -25 30 -49 60 -55 66 -5 6 -30 35 -55 64 -78 93 -216 226 -295 285
-22 16 -42 33 -45 36 -8 11 -238 158 -262 169 -13 6 -45 23 -73 40 -27 16
-102 55 -165 87 -63 32 -118 63 -122 68 -4 6 -8 7 -8 3 0 -4 -41 13 -90 38
-50 24 -92 44 -95 44 -2 0 -37 15 -77 34 -40 19 -120 55 -178 81 -58 25 -123
54 -145 64 -39 17 -228 101 -330 146 -47 21 -83 36 -95 40 -3 1 -27 12 -55 24
-27 12 -102 45 -165 73 -63 28 -148 65 -188 84 -41 19 -77 34 -81 34 -5 0 -8
-17 -9 -37z"/>
</g>
</svg>
